<?xml version="1.0" encoding="UTF-8"?>
<svg id="Layer_1" data-name="Layer 1" xmlns="http://www.w3.org/2000/svg" viewBox="0 0 720 720">
  <defs>
    <style>
      .cls-1 {
        fill: none;
        stroke: #000;
        stroke-linecap: round;
        stroke-linejoin: round;
        stroke-width: 2px;
      }

      .cls-2, .cls-3 {
        stroke-width: 0px;
      }

      .cls-3 {
        fill: #f2f2f2;
      }
    </style>
  </defs>
  <g>
    <g>
      <rect class="cls-3" x="229.06" y="276.77" width="284.03" height="184.89" rx="10.74" ry="10.74"/>
      <path class="cls-2" d="M502.35,464.41H239.79c-7.44,0-13.49-6.05-13.49-13.49v-163.42c0-7.44,6.05-13.49,13.49-13.49h262.56c7.44,0,13.49,6.05,13.49,13.49v163.42c0,7.44-6.05,13.49-13.49,13.49ZM239.79,279.52c-4.4,0-7.99,3.58-7.99,7.99v163.42c0,4.4,3.58,7.99,7.99,7.99h262.56c4.4,0,7.99-3.58,7.99-7.99v-163.42c0-4.4-3.58-7.99-7.99-7.99H239.79Z"/>
    </g>
    <g>
      <path class="cls-1" d="M151.42,313.04c34.13,29.54,77.5,29.59,77.83,29.59v34.29s-58.49-1.87-92.81-31.35c-.06-.06-.14-.11-.19-.17l9.43-21.86,4.73-10.95.72-1.68"/>
      <path class="cls-1" d="M121.37,280.62c10.84,8.58,15.48,22.08,8.53,38.72-7.18,17.11-19.94,24.59-34.71,24.45-12.21-.08-26.46-5.94-26.46-5.94l-38.61,2.45c-3,.22-5.58-1.76-5.8-4.37l-.66-8.17c-.22-2.61,2.04-4.92,5.03-5.14l35.81-1.73-.52-8.25-48.65-9.52c-2.94-.77-4.73-3.69-3.99-6.52l2.26-8.75c.74-2.83,3.71-4.48,6.66-3.71l44.03,11.91,1.4-5.2-31.21-13.06c-2.81-1.18-4.13-4.37-2.97-7.15l3.58-8.55c1.18-2.78,4.37-4.04,7.21-2.89l41.94,17.96"/>
      <path class="cls-1" d="M94.72,274.19c-3.41.83-6.96,1.21-10.45,3.08-.06,0-.08.03-.14.06"/>
      <path class="cls-1" d="M145.68,323.55l8.86-21.12c.8-1.93-.11-4.13-2.04-4.92l-7.76-3.27c-1.93-.8-4.13.11-4.92,2.01l-20.08,47.91c-.8,1.9.11,4.1,2.01,4.9l7.78,3.27c1.93.8,4.13-.11,4.92-2.01l1.98-4.73,9.24-22.03Z"/>
      <path class="cls-1" d="M120.93,280.37l-16.91-30.64c-1.51-2.64-4.98-3.49-7.76-1.93l-7.12,4.04c-2.78,1.6-3.82,5.03-2.31,7.65l8.03,14.6,7.54,13.7"/>
    </g>
    <g>
      <path class="cls-2" d="M429.82,407.45c2.77.77,5.34.67,7.7-.3,2.95-1.21,5.07-3.48,6.34-6.81l1.52.49c-.9,3.5-.53,6.58,1.11,9.24,1.32,2.16,3.33,3.75,6.02,4.77l-.49,1.52c-2.78-.76-5.35-.66-7.69.31-2.95,1.22-5.07,3.5-6.35,6.84l-1.52-.49c.77-2.77.66-5.34-.32-7.71-1.22-2.96-3.49-5.08-6.81-6.34l.49-1.52ZM448.11,414.25c-3.04-2.45-4.66-5.62-4.84-9.53-2.37,3.06-5.54,4.67-9.54,4.84,1.49,1.15,2.65,2.56,3.49,4.21s1.29,3.43,1.36,5.33c1.18-1.5,2.6-2.68,4.25-3.52s3.41-1.29,5.28-1.33Z"/>
      <path class="cls-2" d="M437.98,423.85s-.07,0-.11-.02l-1.52-.49c-.17-.06-.27-.24-.23-.42.74-2.68.64-5.2-.3-7.48-1.17-2.86-3.4-4.93-6.62-6.15-.17-.06-.26-.25-.2-.43l.49-1.52c.06-.18.25-.28.42-.23,2.68.74,5.2.65,7.48-.29,2.85-1.17,4.92-3.39,6.15-6.62.07-.17.25-.27.43-.2l1.52.49c.17.06.27.24.23.41-.88,3.39-.52,6.41,1.07,8.97,1.27,2.08,3.24,3.64,5.85,4.64.17.06.26.25.2.43l-.49,1.52c-.06.17-.24.27-.42.23-2.69-.74-5.21-.64-7.47.3-2.85,1.18-4.92,3.41-6.16,6.65-.05.14-.18.22-.32.22ZM436.88,422.79l.9.29c1.32-3.25,3.48-5.52,6.42-6.73,2.32-.95,4.87-1.09,7.6-.41l.29-.9c-2.6-1.05-4.58-2.66-5.89-4.8-1.64-2.65-2.05-5.74-1.22-9.19l-.91-.3c-1.32,3.25-3.48,5.5-6.41,6.7-2.34.95-4.89,1.09-7.61.4l-.29.9c3.24,1.31,5.5,3.46,6.71,6.41.97,2.34,1.11,4.9.42,7.61ZM438.58,419.45s-.07,0-.11-.02c-.14-.05-.23-.17-.24-.31-.07-1.85-.52-3.59-1.32-5.19-.81-1.6-1.95-2.97-3.39-4.09-.11-.09-.16-.24-.12-.38.04-.14.17-.23.31-.24,3.87-.16,6.99-1.75,9.28-4.71.09-.11.24-.16.38-.12.14.04.23.17.24.31.18,3.78,1.77,6.9,4.72,9.28.11.09.16.24.11.38-.05.14-.17.23-.32.23-1.81.05-3.54.48-5.13,1.3-1.6.82-2.99,1.97-4.13,3.43-.07.08-.17.13-.27.13ZM434.61,409.85c1.21,1.07,2.19,2.34,2.92,3.77.73,1.43,1.18,2.98,1.34,4.61,1.09-1.23,2.37-2.22,3.81-2.95,1.43-.73,2.97-1.17,4.56-1.32-2.48-2.23-3.9-5.04-4.25-8.35-2.18,2.49-4.99,3.91-8.38,4.25Z"/>
    </g>
    <path class="cls-2" d="M192.01,266.19l9.38.9,6.35-6.97-.9,9.38,6.97,6.35-9.38-.9-6.35,6.97.9-9.38-6.97-6.35Z"/>
    <path class="cls-2" d="M541.11,294.28l3.89,2.73,4.51-1.47-2.73,3.89,1.47,4.51-3.89-2.73-4.51,1.47,2.73-3.89-1.47-4.51Z"/>
    <path class="cls-2" d="M178.94,410.71l-2.99-7.52,6.75,4.46,5.02-6.36-.46,8.07,8,1.17-7.23,3.65,3,7.49-6.75-4.43-5.03,6.35.46-8.07-8-1.17,7.24-3.64Z"/>
    <path class="cls-2" d="M527.85,276.19l-5.3-6.11,7.84,1.99,2.65-7.65,2.22,7.77,7.94-1.52-5.63,5.82,5.29,6.09-7.83-1.97-2.66,7.65-2.22-7.77-7.94,1.52,5.64-5.81Z"/>
    <g>
      <path class="cls-1" d="M592.03,313.04c-34.27,29.65-78.05,27.8-78.05,27.8v34.27s58.52-1.21,89.71-27.83"/>
      <path class="cls-1" d="M649.89,342.06c-14.74,2.59-29.01-3.8-36.38-21.34-7.15-17.08-2.48-30.86,8.44-39.57"/>
      <path class="cls-1" d="M648.38,274.79h.03c3.47.83,7.01,1.24,10.53,3.14"/>
      <path class="cls-1" d="M595.58,319.78l-7.01-16.75c-.8-1.93.08-4.13,2.01-4.92l7.78-3.25c1.9-.8,4.1.08,4.92,2.01l20.05,47.88c.83,1.93-.08,4.13-2.01,4.92l-7.78,3.25c-1.9.83-4.1-.08-4.9-2.01l-2.04-4.84-11.03-26.29Z"/>
      <path class="cls-1" d="M622.14,280.98l16.94-30.64c1.49-2.64,4.95-3.49,7.76-1.9l7.1,4.04c2.78,1.6,3.82,5.01,2.31,7.65l-7.84,14.66-5.06,9.46"/>
      <path class="cls-1" d="M658.94,277.93l41.94-17.93c2.81-1.18,6.05.14,7.21,2.94l3.66,8.69c1.18,2.81-.14,6.02-2.94,7.21l-31.21,13.09"/>
      <path class="cls-1" d="M650.85,325.06c-2.23.66-4.62-.47-5.5-2.64l-4.35-10.37c-.99-2.34.11-5.03,2.45-6.02l32.29-13.53c.25-.11.5-.14.74-.14.77,0,1.49.44,1.79,1.18l6.41,15.29c.41.99-.03,2.12-1.02,2.53l-32.29,13.53c-.17.08-.36.14-.52.17Z"/>
      <path class="cls-1" d="M651.15,326.02l29.4-6.68c.99-.22,1.95.39,2.17,1.38l3.27,14.38c.22.96-.39,1.93-1.38,2.15l-29.4,6.68c-2.04.47-4.04-.41-5.14-2.04-.33-.5-.58-1.05-.72-1.65l-1.9-8.33c-.61-2.64,1.05-5.28,3.69-5.89Z"/>
      <polyline class="cls-1" points="607.07 346.57 595.58 319.78 592.61 312.8 592.17 311.81"/>
    </g>
    <g>
      <g>
        <path class="cls-2" d="M400.79,363.02h23.08c.78,0,1.41.63,1.41,1.41v3.83c0,.78-.63,1.41-1.41,1.41h-23.08c-1.84,0-3.33-1.49-3.33-3.33h0c0-1.84,1.49-3.33,3.33-3.33Z" transform="translate(-94.76 148.95) rotate(-18.44)"/>
        <path class="cls-2" d="M401.33,374.39c-1.97,0-3.81-1.25-4.46-3.21-.82-2.46.51-5.13,2.97-5.95l21.89-7.3c.71-.23,1.46-.18,2.13.15.67.33,1.16.91,1.4,1.61l1.21,3.63c.49,1.46-.3,3.04-1.76,3.52h0l-21.89,7.3c-.49.17-.99.24-1.48.24ZM422.65,360.56l-21.94,7.28c-1.02.34-1.57,1.45-1.23,2.47.34,1.02,1.45,1.57,2.47,1.23l21.89-7.3s.03-.03.02-.05l-1.21-3.63ZM424.28,365.54h.03-.03Z"/>
      </g>
      <path class="cls-2" d="M325.15,384.19c-8.05,0-14.61-6.55-14.61-14.61s6.55-14.61,14.61-14.61,14.61,6.55,14.61,14.61-6.55,14.61-14.61,14.61ZM325.15,360.47c-5.02,0-9.11,4.08-9.11,9.11s4.08,9.11,9.11,9.11,9.11-4.08,9.11-9.11-4.08-9.11-9.11-9.11Z"/>
    </g>
    <path class="cls-2" d="M371.09,416.34c-1.24,0-2.47-.14-3.68-.43l-24.46-5.74c-1.48-.35-2.4-1.83-2.05-3.31s1.82-2.4,3.31-2.05l24.46,5.74c1.77.42,3.64.37,5.38-.14l20.02-5.81c1.45-.42,2.98.42,3.41,1.88s-.42,2.98-1.88,3.41l-20.02,5.81c-1.46.42-2.98.64-4.49.64Z"/>
    <g>
      <line class="cls-2" x1="316.42" y1="337.46" x2="336.53" y2="340.95"/>
      <path class="cls-2" d="M336.53,345.07c-.23,0-.47-.02-.71-.06l-20.11-3.48c-2.24-.39-3.75-2.52-3.36-4.77s2.53-3.75,4.77-3.36l20.11,3.48c2.24.39,3.75,2.52,3.36,4.77-.35,2.01-2.09,3.42-4.06,3.42Z"/>
    </g>
    <g>
      <line class="cls-2" x1="417.19" y1="337.62" x2="397.29" y2="342.12"/>
      <path class="cls-2" d="M397.28,346.25c-1.88,0-3.59-1.3-4.02-3.22-.5-2.22.89-4.43,3.11-4.93l19.9-4.51c2.21-.51,4.43.89,4.93,3.11.5,2.22-.89,4.43-3.11,4.93l-19.9,4.51c-.31.07-.61.1-.91.1Z"/>
    </g>
  </g>
  <path class="cls-1" d="M-627.6-1220.05c0,754.7,2.93,765.11,114.25,406.23-111.32,358.88-103.1,352.26,320.37-258.31-423.47,610.56-426.95,620.79-135.52,398.99-291.43,221.8-281.07,221.5,404.12-11.71-685.19,233.21-693.74,239.35-333.52,239.35-360.23,0-351.67,6.14,333.52,239.35-685.19-233.21-695.55-233.51-404.12-11.71-291.43-221.8-287.95-211.57,135.52,398.99C-616.45-429.42-624.67-436.05-513.35-77.17c-111.32-358.88-114.25-348.46-114.25,406.23,0-754.7-2.93-765.11-114.25-406.23,111.32-358.88,103.1-352.26-320.37,258.31,423.47-610.56,426.95-620.79,135.52-398.99,291.43-221.8,281.07-221.5-404.12,11.71,685.19-233.21,693.74-239.35,333.52-239.35,360.23,0,351.67-6.14-333.52-239.35,685.19,233.21,695.55,233.51,404.12,11.71,291.43,221.8,287.95,211.57-135.52-398.99,423.47,610.56,431.69,617.19,320.37,258.31,111.32,358.88,114.25,348.46,114.25-406.23Z"/>
</svg>